/* XPM */
static char * xs_unlocked_xpm[] = {
"32 32 2 1",
" 	c None",
".	c #6AC259",
"          .........             ",
"         ...........            ",
"        ....     ....           ",
"       ....        ..           ",
"       ...         ...          ",
"       ..           ...         ",
"      ...           ...         ",
"      ...           ...         ",
"      ...            ..         ",
"      ...             .         ",
"       ..                       ",
"       ..                       ",
"       ...                      ",
"    ........................    ",
"    ........................    ",
"    ........................    ",
"    ........................    ",
"    ........................    ",
"    ........................    ",
"    ........................    ",
"    ...........  ...........    ",
"    ...........  ...........    ",
"    ...........  ...........    ",
"    ...........  ...........    ",
"    ............ ...........    ",
"    ........................    ",
"    ........................    ",
"    ........................    ",
"    ........................    ",
"    ........................    ",
"    ........................    ",
"    ........................    "};
